<?xml version="1.0" encoding="utf-8"?>
<!-- Generator: Adobe Illustrator 22.1.0, SVG Export Plug-In . SVG Version: 6.00 Build 0)  -->
<svg version="1.1" id="Ebene_1" xmlns="http://www.w3.org/2000/svg" xmlns:xlink="http://www.w3.org/1999/xlink" x="0px" y="0px"
	 viewBox="0 0 113.4 113.4" style="enable-background:new 0 0 113.4 113.4;" xml:space="preserve">
<style type="text/css">
	.st0{fill:#192252;}
	.st1{fill:none;}
	.st2{fill:#259D2E;}
	.st3{fill:#FFFFFF;}
</style>
<g>
	<g>
		<path class="st0" d="M32.2,87.9h11.6v-6.1H32.2V87.9z"/>
	</g>
	<g>
		<path class="st0" d="M44.7,87.9h11.6v-6.1H44.7V87.9z"/>
	</g>
	<g>
		<path class="st0" d="M57.1,87.9h11.6v-6.1H57.1V87.9z"/>
	</g>
	<g>
		<path class="st0" d="M69.6,87.9h11.6v-6.1H69.6V87.9z"/>
	</g>
	<g>
		<path class="st0" d="M32.2,80.9h11.6v-6.1H32.2V80.9z"/>
	</g>
	<g>
		<path class="st0" d="M44.7,80.9h11.6v-6.1H44.7V80.9z"/>
	</g>
	<g>
		<path class="st0" d="M57.1,80.9h11.6v-6.1H57.1V80.9z"/>
	</g>
	<g>
		<path class="st0" d="M32.2,74h11.6v-6.1H32.2V74z"/>
	</g>
	<g>
		<path class="st0" d="M44.7,74h11.6v-6.1H44.7V74z"/>
	</g>
	<path class="st0" d="M15.1,39v50.8h83.2V39l-41.8-4.6L15.1,39z M70.8,45l-1.4,7.2h2l-0.4,2.4h-4.5l1.9-9.7L70.8,45L70.8,45z
		 M91.2,88.6H23V59.4h68.1C91.2,59.4,91.2,88.6,91.2,88.6z M35.5,51.2c-1.6-2.7,1.1-6.6,6.1-8.2c-5.1,2.1-6.5,5.5-4.8,7.5
		c2,2.3,9.4,3.3,13.2-2.3h-4.6l0.7-3.2h12.1l-1.8,9.7H53l0.9-4.4c-0.5,0.9-2,2.6-5.4,3.8C43.2,55.5,37.4,54.2,35.5,51.2z M62.5,54.5
		c-2.8,0-3.9-1.5-3.9-3.5c0-3.4,2.3-6.1,6-6.1c0.9,0,2,0.2,2.8,0.3l-0.5,2.6c-0.2-0.1-0.3-0.2-0.5-0.3c-0.1,0-0.1,0-0.2-0.1
		c-0.6-0.2-1.2-0.3-1.8-0.3c-2.1,0-3.1,1.7-3.1,3.5c0,0.9,0.4,1.6,1.6,1.6c0.2,0,0.4,0,0.7-0.1l0.5-2.8h2.4l-0.9,4.7
		C64.7,54.4,63.6,54.5,62.5,54.5z M77.9,47.3C77.6,47.2,77,47,76.6,47c-0.9,0-1.1,0.3-1.1,0.8c0,1,2.4,1,2.4,3.3
		c0,1.9-1.6,3.5-4.1,3.5c-0.7,0-1.4-0.1-1.9-0.2l0.4-2.4c0.4,0.2,1.1,0.3,1.6,0.3c0.8,0,1.1-0.3,1.1-0.8c0-0.9-2.3-0.9-2.3-3.3
		c0-1.8,1.2-3.4,3.9-3.4c0.6,0,1.1,0.1,1.6,0.2L77.9,47.3z"/>
</g>
<rect class="st1" width="113.4" height="113.4"/>

</svg>
