<?xml version="1.0" encoding="utf-8"?>
<!-- Generator: Adobe Illustrator 22.1.0, SVG Export Plug-In . SVG Version: 6.00 Build 0)  -->
<svg version="1.1" id="Ebene_1" xmlns="http://www.w3.org/2000/svg" xmlns:xlink="http://www.w3.org/1999/xlink" x="0px" y="0px"
	 viewBox="0 0 113.4 113.4" style="enable-background:new 0 0 113.4 113.4;" xml:space="preserve">
<style type="text/css">
	.st0{fill:none;}
	.st1{fill:#192252;}
</style>
<polyline class="st0" points="0,0 113.4,0 113.4,113.4 0,113.4 "/>
<rect y="0" class="st0" width="113.4" height="113.4"/>
<g>
	<g>
		<path class="st1" d="M108.7,60.1l-8.9-16.8c-0.3-0.6-0.9-0.9-1.5-0.9h-11c-1,0-1.7,0.8-1.7,1.7v29.7H9.1c-0.7,0-1.2,0.5-1.2,1.2
			v5.9c0,0.7,0.5,1.2,1.2,1.2h6c0.3-4.1,3.7-7.4,7.9-7.4s7.7,3.3,7.9,7.4h4.7c0.3-4.1,3.7-7.4,7.9-7.4s7.7,3.3,7.9,7.4h35.8h1.1
			c0.4-4.1,3.8-7.3,7.9-7.3c4.2,0,7.6,3.2,7.9,7.3h0.5h2.4c1,0,1.7-0.8,1.7-1.7V60.9C108.9,60.7,108.9,60.4,108.7,60.1z M105.4,64.5
			H89.1V45.9h8.1l8.2,15.5C105.4,61.4,105.4,64.5,105.4,64.5z"/>
	</g>
	<ellipse class="st1" cx="23" cy="82.8" rx="7" ry="7"/>
	<ellipse class="st1" cx="43.6" cy="82.8" rx="7" ry="7"/>
	<ellipse class="st1" cx="96.4" cy="82.8" rx="7" ry="7"/>
	<path class="st1" d="M81.2,40.5H9.9c-1.2,0-2.2,1-2.2,2.2v26.8c0,1.2,1,2.2,2.2,2.2h71.3c1.2,0,2.2-1,2.2-2.2V42.7
		C83.4,41.5,82.4,40.5,81.2,40.5z M45.7,63.9h-4.4l1.1-5.7c-0.7,1.2-2.6,3.4-7.1,5c-6.7,1.9-14.2,0.3-16.7-3.7
		c-2.1-3.5,1.5-8.7,8-10.6c-6.5,2.7-8.4,7.2-6.2,9.7c2.6,3,12.2,4.2,17.1-3h-5.9l0.9-4.2h15.6L45.7,63.9z M53.5,63.9
		c-3.6,0-5.1-1.9-5.1-4.6c0-4.4,3-7.9,7.8-7.9c1.2,0,2.5,0.2,3.6,0.5l-0.6,3.3c-0.2-0.1-0.4-0.2-0.7-0.3c-0.1,0-0.2,0-0.2-0.1
		c-0.7-0.2-1.6-0.4-2.3-0.4c-2.7,0-4,2.2-4,4.4c0,1.2,0.6,2,2.2,2c0.3,0,0.6,0,0.9-0.1l0.7-3.7H59l-1.2,6
		C56.5,63.6,55,63.9,53.5,63.9z M64.6,63.8h-5.8l2.4-12.5h3.2l-1.8,9.4h2.6L64.6,63.8z M73.6,54.4c-0.5-0.2-1.2-0.3-1.7-0.3
		c-1.1,0-1.5,0.4-1.5,1c0,1.3,3.1,1.3,3.1,4.3c0,2.5-2.2,4.5-5.2,4.5c-0.9,0-1.8-0.1-2.5-0.2l0.6-3.1c0.6,0.2,1.5,0.4,2.2,0.4
		c1,0,1.4-0.3,1.4-1c0-1.3-3.1-1.2-3.1-4.3c0-2.3,1.6-4.4,5.1-4.4c0.8,0,1.5,0.1,2.2,0.2L73.6,54.4z"/>
</g>
</svg>
