<?xml version="1.0" encoding="utf-8"?>
<!-- Generator: Adobe Illustrator 22.1.0, SVG Export Plug-In . SVG Version: 6.00 Build 0)  -->
<svg version="1.1" id="Ebene_1" xmlns="http://www.w3.org/2000/svg" xmlns:xlink="http://www.w3.org/1999/xlink" x="0px" y="0px"
	 viewBox="0 0 113.4 113.4" style="enable-background:new 0 0 113.4 113.4;" xml:space="preserve">
<style type="text/css">
	.st0{fill:none;}
	.st1{fill:#192252;}
	.st2{fill:#259D2E;}
	.st3{fill:#FFFFFF;}
</style>
<rect class="st0" width="113.4" height="113.4"/>
<g>
	<g>
		<g>
			<path class="st1" d="M26.3,84.6H87c0.8,0,1.5-0.9,1.5-2.1V41.6c0-1.1-0.7-2.1-1.5-2.1H26.3c-0.8,0-1.5,0.9-1.5,2.1v40.9
				C24.9,83.6,25.6,84.6,26.3,84.6z M27.4,42.1h58.7v40H27.4V42.1z"/>
		</g>
		<g>
			<path class="st1" d="M99.4,87.7C99.4,87.7,99.4,87.7,99.4,87.7L99.4,87.7v-2.3H14.1L14,87.7v0.1c0.1,0.3,0.5,1,3.3,1.7H96
				C96,89.4,98.7,89,99.4,87.7L99.4,87.7z M62.3,86.7c-0.3,0.4-0.8,0.3-0.8,0.3h-9.9c-0.3,0-0.6-0.2-0.7-0.3
				c-0.3-0.3-0.2-0.9-0.2-0.9H51h11.5h0.1C62.6,86.3,62.5,86.5,62.3,86.7z"/>
		</g>
	</g>
</g>

</svg>
