<?xml version="1.0" encoding="utf-8"?>
<!-- Generator: Adobe Illustrator 22.1.0, SVG Export Plug-In . SVG Version: 6.00 Build 0)  -->
<svg version="1.1" id="Ebene_1" xmlns="http://www.w3.org/2000/svg" xmlns:xlink="http://www.w3.org/1999/xlink" x="0px" y="0px"
	 viewBox="0 0 113.4 113.4" style="enable-background:new 0 0 113.4 113.4;" xml:space="preserve">
<style type="text/css">
	.st0{fill:#192252;}
	.st1{fill:none;}
	.st2{fill:#259D2E;}
	.st3{fill:#FFFFFF;}
</style>
<g>
	<path class="st0" d="M52.5,89.5l-23-12.3h-0.1h-0.1c-0.3-0.1-0.6-0.6-0.6-0.8V47.6L39,53.2v6.7l4.4,2.1v-6.3l9.2,5L52.5,89.5
		L52.5,89.5z"/>
	<path class="st0" d="M84,77.2L54.2,89.5c0,0-0.1,0-0.1,0.1V60.7L84.7,48v28.3C84.6,76.6,84.3,77.1,84,77.2z"/>
	<path class="st0" d="M83.9,46.3L83.9,46.3c0.2,0.1,0.2,0.2,0.4,0.3L53.4,59.4l-9.5-5.2l30.9-12.8L83.9,46.3L83.9,46.3z"/>
	<path class="st0" d="M60,33.9c0.4,0,9.7,4.9,9.7,4.9L39,51.5l0,0l-9.5-5.2C29.5,46.3,59.7,33.9,60,33.9z"/>
</g>
<rect y="0" class="st1" width="113.4" height="113.4"/>
</svg>
