<?xml version="1.0" encoding="utf-8"?>
<!-- Generator: Adobe Illustrator 22.1.0, SVG Export Plug-In . SVG Version: 6.00 Build 0)  -->
<svg version="1.1" id="Ebene_1" xmlns="http://www.w3.org/2000/svg" xmlns:xlink="http://www.w3.org/1999/xlink" x="0px" y="0px"
	 viewBox="0 0 113.4 113.4" style="enable-background:new 0 0 113.4 113.4;" xml:space="preserve">
<style type="text/css">
	.st0{fill:#192252;stroke:#192252;stroke-miterlimit:10;}
	.st1{fill:#192252;}
	.st2{fill:none;}
	.st3{fill:#259D2E;}
	.st4{fill:#FFFFFF;}
</style>
<g>
	<path class="st1" d="M82.5,39.6H45.2h-1.4L40.7,35H38l14.3,21.2L30,70.4v2.7v1.1v7.6h5.4l3.8,5.8c0.9,1.4,2.5,2.2,4.1,2.2
		c1,0,1.9-0.3,2.7-0.8c0.2-0.1,0.3-0.2,0.4-0.3c0.9,0.8,2,1.1,3.2,1.1c1,0,1.9-0.3,2.7-0.8c0.2-0.1,0.3-0.3,0.4-0.4
		c0.9,0.8,2,1.1,3.2,1.1c1,0,1.9-0.3,2.7-0.8c0.2-0.1,0.3-0.3,0.4-0.3c0.9,0.8,2,1.1,3.2,1.1c1,0,1.9-0.3,2.7-0.8
		c1.1-0.7,1.8-1.8,2.1-3.1c0.3-1.3,0-2.6-0.7-3.7L66,81.8h16.2V39.6H82.5z M68.6,65.3c-0.4,1-1.4,1.5-2.4,1.5l0,0l-7.9-0.1
		c-2,0-3.2,2.2-2.1,3.8l8.5,12.8c0.8,1.2,0.4,2.9-0.8,3.7c-0.4,0.3-1,0.4-1.5,0.4c-0.8,0-1.7-0.4-2.2-1.2l-2.6-4.1l0.9,3.7
		c-0.2,0.4-0.5,0.8-0.9,1.1c-0.4,0.3-1,0.4-1.5,0.4c-0.8,0-1.7-0.4-2.2-1.2L51.2,82l0,0l0,0l0,0l0,0l0.1,0.1l0.9,3.7
		c-0.2,0.4-0.5,0.8-1,1.1c-0.4,0.3-1,0.4-1.5,0.4c-0.8,0-1.7-0.4-2.2-1.2l-2.8-4.2l1,3.9c-0.2,0.4-0.5,0.8-0.9,1
		c-0.4,0.3-1,0.4-1.5,0.4c-0.9,0-1.7-0.4-2.2-1.2l-5.8-8.9c-1.3-1.9-1.8-4.8-1.3-6.9l16.9-10.7c1,0.1,2,0.4,3,0.8
		c1.3,0.6,2.8,0.8,4.3,0.8l8.1,0.1C68,61.5,69.4,63.4,68.6,65.3z"/>
</g>
<rect y="0" class="st2" width="113.4" height="113.4"/>
</svg>
